<svg width="29" height="33" viewBox="0 0 29 33" fill="none" xmlns="http://www.w3.org/2000/svg">
<path d="M26.8063 0.946289C25.7808 0.946289 18.6022 2.89049 18.6022 11.6394V18.4441C18.6022 20.5887 20.4418 22.3325 22.7043 22.3325H24.7553V30.1092C24.7553 31.1846 25.6719 32.0534 26.8063 32.0534C27.9408 32.0534 28.8574 31.1846 28.8574 30.1092V22.3325V15.5278V2.89049C28.8574 1.8151 27.9408 0.946289 26.8063 0.946289ZM4.24511 1.91839C4.24511 1.42019 3.85413 1.00705 3.32856 0.952365C2.80298 0.897684 2.33509 1.22577 2.21972 1.70574L0.277665 9.9868C0.187932 10.3696 0.143066 10.7584 0.143066 11.1472C0.143066 13.936 2.39278 16.2265 5.27062 16.4756V30.1092C5.27062 31.1846 6.18717 32.0534 7.32164 32.0534C8.45611 32.0534 9.37266 31.1846 9.37266 30.1092V16.4756C12.2505 16.2265 14.5002 13.936 14.5002 11.1472C14.5002 10.7584 14.4553 10.3696 14.3656 9.9868L12.4236 1.70574C12.3082 1.21969 11.8275 0.897684 11.3083 0.952365C10.7891 1.00705 10.3982 1.42019 10.3982 1.91839V10.0719C10.3982 10.3999 10.1162 10.6673 9.77004 10.6673C9.44316 10.6673 9.17397 10.4303 9.14192 10.1205L8.34074 1.83333C8.29587 1.32905 7.85362 0.946289 7.32164 0.946289C6.78965 0.946289 6.3474 1.32905 6.30254 1.83333L5.50777 10.1205C5.47572 10.4303 5.20652 10.6673 4.87964 10.6673C4.53353 10.6673 4.25152 10.3999 4.25152 10.0719V1.91839H4.24511ZM7.34087 11.1533H7.32164H7.30241L7.32164 11.1108L7.34087 11.1533Z" fill="url(#paint0_linear_1338_3479)"/>
<defs>
<linearGradient id="paint0_linear_1338_3479" x1="8.19707" y1="0.946289" x2="27.4548" y2="30.6945" gradientUnits="userSpaceOnUse">
<stop stop-color="#C44968"/>
<stop offset="1" stop-color="#B2294B"/>
</linearGradient>
</defs>
</svg>
