<svg width="33" height="33" viewBox="0 0 33 33" fill="none" xmlns="http://www.w3.org/2000/svg">
<path d="M10.4643 24.3286L8.58704 22.4514C8.07064 21.935 7.88838 21.1877 8.11924 20.4951C8.3015 19.9544 8.54451 19.2497 8.83613 18.4417H2.40846C1.88599 18.4417 1.39996 18.1622 1.13872 17.7065C0.877486 17.2509 0.883561 16.692 1.15087 16.2424L4.3404 10.8658C5.13019 9.53527 6.55789 8.72118 8.10101 8.72118H13.101C13.2468 8.47817 13.3926 8.25339 13.5384 8.03468C18.5141 0.695717 25.9259 0.452706 30.3488 1.2668C31.0535 1.39438 31.6003 1.94723 31.7339 2.65196C32.548 7.08086 32.2989 14.4866 24.966 19.4623C24.7534 19.6081 24.5225 19.7539 24.2795 19.8997V24.8997C24.2795 26.4428 23.4654 27.8766 22.135 28.6603L16.7583 31.8498C16.3087 32.1172 15.7498 32.1232 15.2942 31.862C14.8385 31.6008 14.5591 31.1208 14.5591 30.5923V24.0795C13.7024 24.3772 12.9552 24.6202 12.3902 24.8025C11.7097 25.0212 10.9686 24.8329 10.4582 24.3286H10.4643ZM24.2795 11.1513C25.6222 11.1513 26.7097 10.0638 26.7097 8.72118C26.7097 7.37854 25.6222 6.29107 24.2795 6.29107C22.9369 6.29107 21.8494 7.37854 21.8494 8.72118C21.8494 10.0638 22.9369 11.1513 24.2795 11.1513Z" fill="url(#paint0_linear_1338_3461)"/>
<defs>
<linearGradient id="paint0_linear_1338_3461" x1="9.67171" y1="0.946289" x2="28.2608" y2="32.0538" gradientUnits="userSpaceOnUse">
<stop stop-color="#C44968"/>
<stop offset="1" stop-color="#B2294B"/>
</linearGradient>
</defs>
</svg>
