<svg width="35" height="32" viewBox="0 0 35 32" fill="none" xmlns="http://www.w3.org/2000/svg">
<path d="M26.2509 14.5828C29.4712 14.5828 32.084 11.9701 32.084 8.74969C32.084 5.52932 29.4712 2.91656 26.2509 2.91656C24.0938 2.91656 22.2041 4.08926 21.1955 5.83313H17.9994C19.2025 2.43654 22.4411 0 26.2509 0C31.0814 0 35.0006 3.91913 35.0006 8.74969C35.0006 13.5802 31.0814 17.4994 26.2509 17.4994C24.5678 17.4994 23.0001 17.0254 21.6634 16.2052L23.8143 14.0542C24.5556 14.3945 25.382 14.5828 26.2509 14.5828ZM0.111172 8.67677C0.335991 8.12992 0.870694 7.7775 1.46008 7.7775H23.8204C24.4098 7.7775 24.9445 8.12992 25.1693 8.67677C25.3941 9.22363 25.2726 9.84947 24.8533 10.2687L14.0985 21.0236V28.1934H17.9873C18.7954 28.1934 19.4456 28.8436 19.4456 29.6517C19.4456 30.4599 18.7954 31.11 17.9873 31.11H12.6402H7.29321C6.48508 31.11 5.83493 30.4599 5.83493 29.6517C5.83493 28.8436 6.48508 28.1934 7.29321 28.1934H11.182V21.0175L0.427133 10.2687C0.00787756 9.84947 -0.113646 9.22363 0.111172 8.67677Z" fill="#B2294B"/>
</svg>
