<svg width="40" height="40" viewBox="0 0 40 40" fill="none" xmlns="http://www.w3.org/2000/svg">
<rect width="40" height="40" rx="20" fill="#F0F0F0"/>
<path d="M11.9355 15.6923C13.004 15.6923 13.871 14.8654 13.871 13.8462C13.871 12.8269 13.004 12 11.9355 12C10.8669 12 10 12.8269 10 13.8462C10 14.8654 10.8669 15.6923 11.9355 15.6923ZM17.0968 12.6154C16.3831 12.6154 15.8065 13.1654 15.8065 13.8462C15.8065 14.5269 16.3831 15.0769 17.0968 15.0769H28.7097C29.4234 15.0769 30 14.5269 30 13.8462C30 13.1654 29.4234 12.6154 28.7097 12.6154H17.0968ZM17.0968 18.7692C16.3831 18.7692 15.8065 19.3192 15.8065 20C15.8065 20.6808 16.3831 21.2308 17.0968 21.2308H28.7097C29.4234 21.2308 30 20.6808 30 20C30 19.3192 29.4234 18.7692 28.7097 18.7692H17.0968ZM17.0968 24.9231C16.3831 24.9231 15.8065 25.4731 15.8065 26.1538C15.8065 26.8346 16.3831 27.3846 17.0968 27.3846H28.7097C29.4234 27.3846 30 26.8346 30 26.1538C30 25.4731 29.4234 24.9231 28.7097 24.9231H17.0968ZM11.9355 28C13.004 28 13.871 27.1731 13.871 26.1538C13.871 25.1346 13.004 24.3077 11.9355 24.3077C10.8669 24.3077 10 25.1346 10 26.1538C10 27.1731 10.8669 28 11.9355 28ZM13.871 20C13.871 18.9808 13.004 18.1538 11.9355 18.1538C10.8669 18.1538 10 18.9808 10 20C10 21.0192 10.8669 21.8462 11.9355 21.8462C13.004 21.8462 13.871 21.0192 13.871 20Z" fill="#1E1E1E"/>
</svg>
